# xmcd
#
# Track frame offsets: 
#        150
#        13477
#        25480
#        47830
#        63050
#        76122
#        87167
#        100765
#        110595
#        122052
#        138620
#        150132
#        164585
#        177515
#        190057
#        211827
#        227422
#        241605
#        253327
#        266005
#        278592
#        297500
#        314242
#        325070
#
# Disc length: 4498 seconds
#
# Revision: 0
# Processed by: cddbd v1.5.2PL0 Copyright (c) Steve Scherf et al.
# Submitted via: ExactAudioCopyFreeDBPlugin 1.0
#
DISCID=52119018
DTITLE=Various Artist - Rites of Rhythm and Blues:  Rhythm and Blues Foun
DTITLE=dation Pioneer Awards
DYEAR=1997
DGENRE=Rhythm and Blues
TTITLE0=The Four Tops - Reach Out (I'll Be There)
TTITLE1=Little Milton - We're Gonna Make It
TTITLE2=The Spinners - Mighty Love
TTITLE3=Vann "Piano Man" Walls and His Orchestra - Chains of Love
TTITLE4=Smokey Robinson and The Miracles - Tracks of My Tears
TTITLE5=Gene Chandler - Duke of Earl
TTITLE6=William Bell - You Don't Miss Your Water
TTITLE7=Phil Upchurch - You Can't Sit Down
TTITLE8=Ruby and The Romantics - Our Day Will Come
TTITLE9=Gloria Lynne - I Wish You Love
TTITLE10=Clarence "Gatemouth" Brown - Okie Dokie Stomp
TTITLE11=Gary U.S. Bonds - Dedication
TTITLE12=Vann "Piano Man" Walls and His Orchestra - Rhumboogie Jive
TTITLE13=Smokey Robinson and The Miracles - Shop Around
TTITLE14=Little Milton - My Dog and Me
TTITLE15=William Bell - Trying to Love Two
TTITLE16=The Spinners - That's What Little Girls Are Made Of
TTITLE17=Gene Chandler - Here Come the Tears
TTITLE18=Ruby and The Romantics - Young Wings Can Fly
TTITLE19=Clarence "Gatemouth" Brown - My Time is Expensive
TTITLE20=Gloria Lynne - The Folks That Live on the Hill
TTITLE21=Gary U.S. Bonds - This Little Girl
TTITLE22=Phil Upchurch - All Blues
TTITLE23=The Four Tops - Baby I Need Your Lovin'
EXTD=
EXTT0=
EXTT1=
EXTT2=
EXTT3=
EXTT4=
EXTT5=
EXTT6=
EXTT7=
EXTT8=
EXTT9=
EXTT10=
EXTT11=
EXTT12=
EXTT13=
EXTT14=
EXTT15=
EXTT16=
EXTT17=
EXTT18=
EXTT19=
EXTT20=
EXTT21=
EXTT22=
EXTT23=
PLAYORDER=
